HIERARCHY
ROOT RootJoint
{
    OFFSET   0.000000   0.000000   0.000000
    CHANNELS 6 Xposition Yposition Zposition Xrotation Yrotation Zrotation
    JOINT pelvis_lowerback
    {
        OFFSET   0.000000   0.093605   0.000000
        CHANNELS 3 Xrotation Yrotation Zrotation
        JOINT lowerback_torso
        {
            OFFSET   0.000000   0.100000   0.000000
            CHANNELS 3 Xrotation Yrotation Zrotation
            JOINT torso_head
            {
                OFFSET   0.000000   0.282350   0.000000
                CHANNELS 3 Xrotation Yrotation Zrotation
                End Site
                {
                    OFFSET   0.000000   0.192650   0.000000
                }
            }
            JOINT rTorso_Clavicle
            {
                OFFSET  -0.001000   0.157500   0.000000
                CHANNELS 3 Xrotation Yrotation Zrotation
                JOINT rShoulder
                {
                    OFFSET  -0.117647   0.000000   0.000000
                    CHANNELS 3 Xrotation Yrotation Zrotation
                    JOINT rElbow
                    {
                        OFFSET  -0.245000   0.000000   0.000000
                        CHANNELS 3 Xrotation Yrotation Zrotation
                        JOINT rWrist
                        {
                            OFFSET  -0.240000   0.000000   0.000000
                            CHANNELS 3 Xrotation Yrotation Zrotation
                            End Site
                            {
                                OFFSET  -0.116353  -0.002500   0.000000
                            }
                        }
                    }
                }
            }
            JOINT lTorso_Clavicle
            {
                OFFSET   0.001000   0.157500   0.000000
                CHANNELS 3 Xrotation Yrotation Zrotation
                JOINT lShoulder
                {
                    OFFSET   0.117647   0.000000   0.000000
                    CHANNELS 3 Xrotation Yrotation Zrotation
                    JOINT lElbow
                    {
                        OFFSET   0.245000   0.000000   0.000000
                        CHANNELS 3 Xrotation Yrotation Zrotation
                        JOINT lWrist
                        {
                            OFFSET   0.240000   0.000000   0.000000
                            CHANNELS 3 Xrotation Yrotation Zrotation
                            End Site
                            {
                                OFFSET   0.116353  -0.002500   0.000000
                            }
                        }
                    }
                }
            }
        }
    }
    JOINT rHip
    {
        OFFSET  -0.100000  -0.051395   0.000000
        CHANNELS 3 Xrotation Yrotation Zrotation
        JOINT rKnee
        {
            OFFSET   0.000000  -0.410000   0.000000
            CHANNELS 3 Xrotation Yrotation Zrotation
            JOINT rAnkle
            {
                OFFSET   0.000000  -0.390000   0.000000
                CHANNELS 3 Xrotation Yrotation Zrotation
                JOINT rToeJoint
                {
                    OFFSET   0.000000  -0.050000   0.130000
                    CHANNELS 3 Xrotation Yrotation Zrotation
                    End Site
                    {
                        OFFSET  -0.010000   0.002000   0.060000
                    }
                }
            }
        }
    }
    JOINT lHip
    {
        OFFSET   0.100000  -0.051395   0.000000
        CHANNELS 3 Xrotation Yrotation Zrotation
        JOINT lKnee
        {
            OFFSET   0.000000  -0.410000   0.000000
            CHANNELS 3 Xrotation Yrotation Zrotation
            JOINT lAnkle
            {
                OFFSET   0.000000  -0.390000   0.000000
                CHANNELS 3 Xrotation Yrotation Zrotation
                JOINT lToeJoint
                {
                    OFFSET   0.000000  -0.050000   0.130000
                    CHANNELS 3 Xrotation Yrotation Zrotation
                    End Site
                    {
                        OFFSET   0.010000   0.002000   0.060000
                    }
                }
            }
        }
    }
}
MOTION
Frames: 11
Frame Time:   0.008333
 -2.510942   0.917557   5.104793  -7.747521 -11.650514  -4.370371  12.229169   3.325755   1.459395   0.947970   0.689221   1.632923   0.544347  -0.878045   1.815191   0.897884   6.957483   4.976024  -1.972058  15.903402  49.000438  -0.005836  61.958145   0.004092  -0.733331   2.856967  -9.584397  -0.295253   0.029489  -2.411284 -12.436155   3.695080 -35.973478  -0.040583 -72.039763  -0.030477  -4.316367  -3.879033  17.267625  -6.581129  -0.712091   4.902249  24.609072   0.000004  -0.001615   0.973720  -0.671124  -1.999369 -17.515410  -0.000254   0.001156  -0.788632  -1.132516   4.030426  57.467399  -0.000808   0.002043  -6.400066   1.531397  -3.513334  -0.063610   0.000076  -0.001187
 -2.509756   0.917396   5.099955  -7.552781 -11.467677  -4.345008  12.032102   3.233705   1.482274   0.854356   0.680270   1.710978   0.548085  -0.879834   1.789211   0.934585   6.945779   5.058149  -1.826810  15.833604  48.976681  -0.005156  61.626687   0.003475  -0.708358   2.907224  -9.566045  -0.385423  -0.003736  -2.205881 -13.059007   3.599680 -35.638427  -0.046171 -72.625825  -0.035809  -4.382121  -3.802454  17.330829  -6.925594  -0.753347   4.911385  24.269115  -0.000140  -0.001775   1.205023  -0.822586  -1.943191 -17.114040  -0.000214   0.000925   0.016188  -1.335857   3.876375  55.590879  -0.001392   0.004839  -6.805077   1.397504  -3.275634  -0.039352   0.000028  -0.001035
 -2.508454   0.917229   5.094949  -7.315715 -11.178658  -4.306711  11.832842   3.096687   1.519725   0.734715   0.623769   1.782172   0.545503  -0.880931   1.757516   0.982691   6.910216   5.112502  -1.676361  15.749737  48.943519  -0.004516  61.310876   0.002997  -0.692694   2.920906  -9.574226  -0.499310  -0.064439  -1.983958 -13.668642   3.476946 -35.320964  -0.050565 -73.203029  -0.040047  -4.412493  -3.854955  17.416008  -7.304518  -0.794987   4.902970  23.913609  -0.000386  -0.002233   1.458370  -0.967789  -1.887246 -16.727325  -0.000146   0.001120   0.752328  -1.558099   3.758504  53.545822  -0.003145   0.005824  -7.198315   1.272043  -3.053306  -0.045750   0.000023  -0.000811
 -2.507031   0.916995   5.089789  -7.081877 -10.829845  -4.268843  11.656735   2.938364   1.564564   0.616710   0.536870   1.853746   0.541979  -0.881632   1.725697   1.029455   6.865618   5.145047  -1.531833  15.662301  48.900421  -0.003940  61.013573   0.002636  -0.681045   2.913222  -9.605264  -0.623996  -0.145969  -1.754559 -14.255076   3.339758 -35.017288  -0.053196 -73.752684  -0.042643  -4.420721  -3.975151  17.510716  -7.683711  -0.827403   4.880145  23.560118  -0.000666  -0.002786   1.704913  -1.102357  -1.832592 -16.324866  -0.000051   0.001561   1.418820  -1.769178   3.669988  51.558444  -0.005387   0.005284  -7.568305   1.153732  -2.846762  -0.054323   0.000018  -0.000633
 -2.505485   0.916666   5.084500  -6.866509 -10.500884  -4.235625  11.502764   2.789672   1.607661   0.508878   0.448055   1.922523   0.540176  -0.881511   1.694882   1.070811   6.821692   5.164966  -1.397606  15.577903  48.853170  -0.003394  60.735514   0.002297  -0.670775   2.897877  -9.646861  -0.748943  -0.231919  -1.525689 -14.810779   3.200498 -34.727813  -0.054153 -74.270743  -0.043709  -4.417589  -4.124868  17.611820  -8.057780  -0.884532   4.843333  23.200592  -0.000872  -0.003101   1.926765  -1.255351  -1.740503 -15.857358  -0.000061   0.001710   2.034488  -1.956320   3.589744  49.682585  -0.007083   0.004527  -7.914327   1.042311  -2.655036  -0.063731   0.000013  -0.000491
 -2.503832   0.916246   5.079104  -6.675838 -10.189101  -4.212176  11.369791   2.645835   1.652220   0.413681   0.359166   1.990667   0.540158  -0.881279   1.665970   1.107826   6.779232   5.178634  -1.273033  15.497394  48.805154  -0.002890  60.475640   0.001971  -0.661239   2.880143  -9.695142  -0.869389  -0.317686  -1.304459 -15.333126   3.063659 -34.454905  -0.053734 -74.756641  -0.043557  -4.408805  -4.284945  17.713444  -8.422206  -0.931253   4.799462  22.852225  -0.001042  -0.003297   2.136526  -1.390787  -1.643046 -15.366310  -0.000073   0.001880   2.606052  -2.130749   3.518983  47.930926  -0.008206   0.003762  -8.237167   0.937521  -2.476668  -0.073238   0.000009  -0.000379
 -2.502086   0.915739   5.073613  -6.511378  -9.894730  -4.198453  11.254875   2.507480   1.697125   0.330972   0.271672   2.057916   0.541576  -0.881104   1.639244   1.142101   6.738277   5.189441  -1.156777  15.421011  48.758746  -0.002437  60.232811   0.001664  -0.652369   2.861384  -9.746348  -0.983125  -0.401211  -1.094134 -15.821841   2.931270 -34.199560  -0.052286 -75.211331  -0.042521  -4.397380  -4.446167  17.811182  -8.774194  -0.967043   4.749869  22.514621  -0.001183  -0.003400   2.335122  -1.509887  -1.540782 -14.854442  -0.000085   0.002065   3.137955  -2.294215   3.456312  46.300204  -0.008856   0.003061  -8.538194   0.839052  -2.310647  -0.082679   0.000006  -0.000291
 -2.500129   0.915494   5.068014  -6.276514  -9.618119  -4.128518  11.101538   2.385081   1.689167   0.224147   0.234717   2.095354   0.486504  -0.881605   1.677912   1.152637   6.603546   5.268128  -1.069296  15.083679  48.706605  -0.001343  60.043012   0.000563  -0.661361   2.905338  -9.611092  -1.142052  -0.458731  -0.897673 -16.342566   2.729371 -34.071388  -0.056635 -75.872632  -0.047363  -4.448409  -4.418335  17.876347  -9.255936  -1.010817   4.627809  22.245648  -0.001258  -0.003256   2.677729  -1.659501  -1.295315 -14.583583  -0.000333   0.001741   3.784832  -2.482488   3.314006  43.918241  -0.010437   0.003737  -8.997891   0.806790  -1.922806   0.050914  -0.000223  -0.000420
 -2.498044   0.915254   5.062220  -6.028000  -9.275510  -4.058503  10.963064   2.226569   1.686930   0.112156   0.157699   2.125789   0.431487  -0.879367   1.713945   1.171066   6.444448   5.314348  -0.976999  14.741755  48.638806  -0.000406  59.859621  -0.000300  -0.679759   2.921137  -9.555089  -1.308914  -0.536483  -0.699848 -16.845916   2.514936 -33.957943  -0.059238 -76.516467  -0.050518  -4.467821  -4.502776  17.949291  -9.758805  -1.058645   4.488081  21.972941  -0.001386  -0.003280   3.072032  -1.799592  -1.044048 -14.370228  -0.000459   0.001593   4.376228  -2.672384   3.183123  41.516940  -0.012779   0.002994  -9.436526   0.774657  -1.560227   0.160274  -0.000304  -0.000414
 -2.495856   0.914945   5.056272  -5.795767  -8.904784  -3.996437  10.847487   2.050207   1.685105   0.012204   0.053965   2.151303   0.381551  -0.876869   1.746704   1.192116   6.279455   5.336540  -0.885205  14.409918  48.561555   0.000349  59.685018  -0.000931  -0.701316   2.912787  -9.540553  -1.474942  -0.627310  -0.501224 -17.325805   2.299566 -33.850062  -0.059941 -77.125080  -0.051801  -4.470333  -4.635748  18.018635 -10.251059  -1.097955   4.338635  21.698633  -0.001530  -0.003377   3.473464  -1.927399  -0.798964 -14.154547  -0.000533   0.001565   4.916505  -2.846599   3.059714  39.237513  -0.015044   0.001444  -9.847906   0.742481  -1.222406   0.257490  -0.000314  -0.000344
 -2.493663   0.914752   5.050327  -5.588768  -8.550439  -3.876776  10.739489   1.871662   1.615659  -0.071023  -0.059073   2.147653   0.337254  -0.874607   1.775662   1.222935   6.114556   5.368901  -0.790807  14.092471  48.493643   0.000910  59.516993  -0.001380  -0.725302   2.880465  -9.536880  -1.631997  -0.717563  -0.315095 -17.775946   2.093936 -33.747256  -0.059342 -77.692635  -0.051958  -4.466921  -4.779266  18.078445 -10.712689  -1.120982   4.119005  21.407281  -0.001672  -0.003460   3.902751  -2.048962  -0.556009 -13.965622  -0.000560   0.001492   5.469401  -2.968855   2.960894  37.301966  -0.015382  -0.001293 -10.453188   0.814233  -0.828053  -2.401640   0.004378  -0.004590
